{
	"asset":{
		"generator":"Khronos glTF Blender I/O v4.4.56",
		"version":"2.0"
	},
	"scene":0,
	"scenes":[
		{
			"name":"Scene",
			"nodes":[
				0
			]
		}
	],
	"nodes":[
		{
			"mesh":0,
			"name":"Roundcube",
			"translation":[
				0,
				-1.285846471786499,
				0
			]
		}
	],
	"materials":[
		{
			"doubleSided":true,
			"name":"Material",
			"pbrMetallicRoughness":{
				"baseColorTexture":{
					"index":0
				},
				"metallicFactor":0,
				"roughnessFactor":0.5
			}
		}
	],
	"meshes":[
		{
			"name":"Roundcube",
			"primitives":[
				{
					"attributes":{
						"POSITION":0,
						"NORMAL":1,
						"TEXCOORD_0":2
					},
					"indices":3,
					"material":0
				}
			]
		}
	],
	"textures":[
		{
			"sampler":0,
			"source":0
		}
	],
	"images":[
		{
			"mimeType":"image/png",
			"name":"texture_02",
			"uri":"texture_02.png"
		}
	],
	"accessors":[
		{
			"bufferView":0,
			"componentType":5126,
			"count":1664,
			"max":[
				0.48075735569000244,
				1.803468108177185,
				0.48075735569000244
			],
			"min":[
				-0.48075735569000244,
				0.0006279824883677065,
				-0.48075735569000244
			],
			"type":"VEC3"
		},
		{
			"bufferView":1,
			"componentType":5126,
			"count":1664,
			"type":"VEC3"
		},
		{
			"bufferView":2,
			"componentType":5126,
			"count":1664,
			"type":"VEC2"
		},
		{
			"bufferView":3,
			"componentType":5123,
			"count":2496,
			"type":"SCALAR"
		}
	],
	"bufferViews":[
		{
			"buffer":0,
			"byteLength":19968,
			"byteOffset":0,
			"target":34962
		},
		{
			"buffer":0,
			"byteLength":19968,
			"byteOffset":19968,
			"target":34962
		},
		{
			"buffer":0,
			"byteLength":13312,
			"byteOffset":39936,
			"target":34962
		},
		{
			"buffer":0,
			"byteLength":4992,
			"byteOffset":53248,
			"target":34963
		}
	],
	"samplers":[
		{
			"magFilter":9729,
			"minFilter":9987
		}
	],
	"buffers":[
		{
			"byteLength":58240,
			"uri":"capsule.bin"
		}
	]
}
